# xmcd CD database file
#
# Track frame offsets:
#	150
#	9099
#	19234
#	32742
#	51546
#	66042
#	74974
#	85391
#	100650
#	112847
#	121002
#	135386
#	149809
#	162407
#	177883
#	191884
#	207582
#	228685
#	240645
#	253542
#	259764
#	274537
#	296965
#	306564
#
# Disc length: 4156 seconds
#
# Revision: 0
# Processed by: cddbd v1.5.1PL2 Copyright (c) Steve Scherf et al.
# Submitted via: CDex 1.51
#
DISCID=71103a18
DTITLE=Bloomington Pops Orchestra - Hoagy's Songs
DYEAR=2005
DGENRE=Jazz
TTITLE0=Can't Get Indiana Off My Mind
TTITLE1=Lazy River
TTITLE2=I Walk With Music
TTITLE3=Rockin' Chair
TTITLE4=Skylark
TTITLE5=Little Old Lady
TTITLE6=Blue Orchids
TTITLE7=Winter Moon
TTITLE8=The Nearness of You
TTITLE9=In The Cool, Cool, Cool of the Evening
TTITLE10=Lazybones
TTITLE11=Georgia On My Mind
TTITLE12=One Morning In May
TTITLE13=Heart And Soul
TTITLE14=New Orleans
TTITLE15=Memphis In June
TTITLE16=Skylark
TTITLE17=Two Sleepy People
TTITLE18=Riverboat Shuffle
TTITLE19=Hoagy's Tune
TTITLE20=Star Dust
TTITLE21=Stardust
TTITLE22=Stardust (reprise)
TTITLE23=Can't Get Indiana Off My Mind (reprise)
EXTD=YEAR: 2005
EXTT0=
EXTT1=
EXTT2=
EXTT3=
EXTT4=
EXTT5=
EXTT6=
EXTT7=
EXTT8=
EXTT9=
EXTT10=
EXTT11=
EXTT12=
EXTT13=
EXTT14=
EXTT15=
EXTT16=
EXTT17=
EXTT18=
EXTT19=
EXTT20=
EXTT21=
EXTT22=
EXTT23=
PLAYORDER=
